<svg width="172" height="50" viewBox="0 0 172 50" fill="none" xmlns="http://www.w3.org/2000/svg">
<path d="M34.3758 6.75614L35.5352 17.1889C35.6887 18.5593 35.3972 19.9426 34.7041 21.134L28.7596 31.4794L26.9527 23.2785L25.8024 18.0787L20.5023 18.504L12.5944 19.1374L20.3999 10.7103C21.3321 9.69609 22.5672 9.01146 23.9202 8.75884L34.3698 6.77122L34.3758 6.75614ZM37.4143 3.79374e-07C37.2475 -9.03197e-05 37.0811 0.0160821 36.9174 0.0482688L22.788 2.73563C20.1548 3.23615 17.7508 4.56793 15.928 6.53595L0.804755 22.8653C0.553367 23.1373 0.38602 23.4763 0.322948 23.8415C0.259877 24.2067 0.303783 24.5824 0.449355 24.9231C0.594928 25.2639 0.835934 25.5551 1.14323 25.7615C1.45054 25.968 1.81097 26.0809 2.18096 26.0865C2.23613 26.0895 2.29142 26.0895 2.34659 26.0865L20.9811 24.5935L25.1308 43.369C25.2214 43.7993 25.4582 44.1848 25.8009 44.4599C26.1436 44.7349 26.5709 44.8823 27.0099 44.877C27.3453 44.8787 27.675 44.7904 27.9647 44.6212C28.2544 44.452 28.4935 44.2081 28.6572 43.9149L39.9951 24.1833C41.3263 21.8655 41.8854 19.1831 41.5911 16.5254L40.0222 2.36767C39.9504 1.72082 39.6433 1.1231 39.1595 0.688608C38.6757 0.254114 38.0491 0.0132632 37.3993 0.0120583L37.4143 3.79374e-07Z" fill="url(#paint0_linear_36_98)"/>
<path d="M59.9997 6.87979V33.2348H70.2987V38.2174H53.7119V6.87979H59.9997Z" fill="white"/>
<path d="M72.7197 6.69883C72.7197 4.63278 74.3338 3.01613 76.5743 3.01613C78.8148 3.01613 80.4289 4.63278 80.4289 6.69883C80.4289 8.76488 78.7726 10.3815 76.5743 10.3815C74.376 10.3815 72.7197 8.7679 72.7197 6.69883ZM73.3913 13.3343H79.667V38.2084H73.3913V13.3343Z" fill="white"/>
<path d="M86.5273 18.507H83.7026V13.3434H86.5273V12.0856C86.5273 5.98098 89.9784 3.15185 96.9709 3.33885V8.63518C93.9233 8.54469 92.8934 9.54002 92.8934 12.3179V13.3494H97.2419V18.513H92.8934V38.2234H86.5273V18.507Z" fill="white"/>
<path d="M103.201 18.507H100.244V13.3434H103.201V6.87979H109.525V13.3434H115.084V18.507H109.522V30.5414C109.522 32.2032 110.194 32.9211 112.166 32.9211H115.081V38.2174H111.136C106.384 38.2174 103.201 36.1966 103.201 30.4961V18.507Z" fill="white"/>
<path d="M118.039 6.69883C118.039 4.63278 119.653 3.01613 121.893 3.01613C124.134 3.01613 125.751 4.63278 125.751 6.69883C125.751 8.76488 124.091 10.3815 121.893 10.3815C119.695 10.3815 118.039 8.7679 118.039 6.69883ZM118.71 13.3343H124.986V38.2084H118.722L118.71 13.3343Z" fill="white"/>
<path d="M131.846 18.507H129.021V13.3434H131.846V12.0856C131.846 5.98098 135.297 3.15185 142.289 3.33885V8.63518C139.242 8.54469 138.212 9.54002 138.212 12.3179V13.3494H142.56V18.513H138.212V38.2234H131.846V18.507Z" fill="white"/>
<path d="M164.613 13.3434H171.295L155.916 49.9834H149.236L154.618 37.5901L144.665 13.3434H151.703L158.114 30.7193L164.613 13.3434Z" fill="white"/>
<defs>
<linearGradient id="paint0_linear_36_98" x1="18.5773" y1="28.5041" x2="50.1122" y2="-11.5021" gradientUnits="userSpaceOnUse">
<stop stop-color="#4CAF4F"/>
<stop offset="1" stop-color="#A9FF62"/>
</linearGradient>
</defs>
</svg>
